<?xml version="1.0" encoding="utf-8" ?><svg xmlns="http://www.w3.org/2000/svg" xmlns:xlink="http://www.w3.org/1999/xlink" width="256" height="256" viewBox="0 0 256 256"><path fill="#FEFEFE" d="M62.5123 193.136C63.5458 192.366 68.3724 187.362 69.6321 186.099L85.0053 170.726L155.612 100.132L179.454 76.2802C183.039 72.6975 186.683 69.184 190.173 65.511C191.505 64.1098 192.895 63.7414 194.623 64.5671C195.637 66.1457 195.249 81.2226 195.249 84.4135L195.249 118.283L195.248 147.347C195.249 151.888 195.436 158.068 195.2 162.475C194.836 163.114 194.341 163.859 193.821 164.386C187.24 171.058 180.555 177.655 173.927 184.281C166.534 191.672 159.168 199.089 151.738 206.442C151.004 207.169 149.586 208.403 148.654 208.838C148.244 209.018 147.656 208.809 147.266 208.62C146.445 208.223 146.177 207.565 146.016 206.715C145.765 205.38 145.619 203.994 145.619 202.629C145.617 196.872 145.892 191.129 145.987 185.368C146.101 178.424 145.383 171.342 145.822 164.422C141.391 169.472 135.569 175.077 130.781 179.869L106.993 203.654L80.7162 229.936C76.0562 234.604 71.3803 239.338 66.6549 243.945C65.7551 244.732 64.7864 245.752 63.5403 245.842C61.7136 245.974 61.3615 243.413 61.3041 242.057C61.1757 239.024 61.2554 235.908 61.2806 232.865C61.3211 228.007 61.3335 223.149 61.3178 218.29L61.2375 204.223C61.2282 201.979 60.7387 194.499 62.5123 193.136Z"/><path fill="#3A3D3B" d="M194.623 64.5671C195.637 66.1457 195.249 81.2226 195.249 84.4135L195.249 118.283L195.248 147.347C195.249 151.888 195.436 158.068 195.2 162.475C194.836 163.114 194.341 163.859 193.821 164.386C187.24 171.058 180.555 177.655 173.927 184.281C166.534 191.672 159.168 199.089 151.738 206.442C151.004 207.169 149.586 208.403 148.654 208.838C148.244 209.018 147.656 208.809 147.266 208.62C146.445 208.223 146.177 207.565 146.016 206.715C145.765 205.38 145.619 203.994 145.619 202.629C145.617 196.872 145.892 191.129 145.987 185.368C146.101 178.424 145.383 171.342 145.822 164.422C141.391 169.472 135.569 175.077 130.781 179.869L106.993 203.654L80.7162 229.936C76.0562 234.604 71.3803 239.338 66.6549 243.945C65.7551 244.732 64.7864 245.752 63.5403 245.842C61.7136 245.974 61.3615 243.413 61.3041 242.057C61.1757 239.024 61.2554 235.908 61.2806 232.865C61.3211 228.007 61.3335 223.149 61.3178 218.29L61.2375 204.223C61.2282 201.979 60.7387 194.499 62.5123 193.136C61.2655 196.65 61.9906 214.781 61.9949 219.782L62.0029 234.042C62.0047 236.589 61.9158 240.305 62.1349 242.777C62.1216 243.63 62.0779 243.871 62.5059 244.645C64.691 246.041 67.0307 242.688 68.3856 241.325C72.0535 237.636 75.7456 233.971 79.4314 230.299L117.723 192.024L136.094 173.643C138.619 171.109 143.822 166.114 145.912 163.426L146.158 163.487C146.271 164.467 146.287 165.201 146.3 166.189C146.374 172.698 146.696 179.094 146.613 185.625C146.53 192.215 146.177 198.762 146.458 205.348C146.595 205.4 146.733 205.449 146.872 205.496C147.142 205.588 148.103 205.79 148.27 205.668C152.694 202.466 157.313 197.25 161.14 193.42L183.866 170.688C186.089 168.465 192.227 161.981 194.58 160.827C194.825 155.535 194.704 149.458 194.703 144.118L194.693 116.375L194.692 83.4475C194.693 77.2732 194.808 70.6901 194.623 64.5671Z"/><path fill="#B2AEAD" d="M194.58 160.827C194.621 161.515 194.729 162.384 194.235 162.886C191.739 165.42 189.169 167.931 186.651 170.438L171.826 185.263L157.44 199.658C155.087 202.013 152.768 204.414 150.374 206.724C148.333 208.693 146.447 208.516 146.458 205.348C146.595 205.4 146.733 205.449 146.872 205.496C147.142 205.588 148.103 205.79 148.27 205.668C152.694 202.466 157.313 197.25 161.14 193.42L183.866 170.688C186.089 168.465 192.227 161.981 194.58 160.827Z"/><path fill="#B2AEAD" d="M62.1349 242.777C63.8863 242.86 64.8625 242.01 66.0569 240.84C72.2264 234.797 78.3095 228.66 84.4166 222.553L119.272 187.685L138.572 168.385C140.32 166.644 145.242 162.21 146.419 160.764C146.476 161.937 146.631 165.194 146.3 166.189C146.287 165.201 146.271 164.467 146.158 163.487L145.912 163.426C143.822 166.114 138.619 171.109 136.094 173.643L117.723 192.024L79.4314 230.299C75.7456 233.971 72.0535 237.636 68.3856 241.325C67.0307 242.688 64.691 246.041 62.5059 244.645C62.0779 243.871 62.1216 243.63 62.1349 242.777Z"/><path fill="#FE0000" d="M53.4228 137.41C54.3203 136.208 55.1979 135.199 56.2473 134.126C68.3517 121.75 80.9813 109.691 93.1106 97.3601C102.178 88.0829 111.322 78.8806 120.541 69.7542C125.005 65.2941 129.509 60.7755 133.998 56.3349C134.579 55.8208 135.735 54.9017 136.564 54.9626C138.34 55.0932 138.068 57.1096 138.007 58.2942C138.219 59.0987 138.161 59.9735 138.161 60.8057C138.162 74.8634 138.135 88.9215 138.141 102.979C138.141 104.066 138.07 105.755 137.754 106.769C119.759 125.187 101.607 143.451 83.2999 161.559L65.7002 179.191C62.9656 181.935 58.8725 186.304 56.0655 188.696C53.1871 189.043 49.2626 188.929 46.2936 188.917L32.0484 188.878L16.6844 188.908C13.5977 188.923 8.55793 189.113 5.65158 188.563C5.32594 178.233 5.6875 167.506 5.53144 157.131C5.52974 156.362 5.59843 155.428 5.6358 154.645C6.55135 153.399 10.3751 149.739 11.6391 148.474L24.4065 135.696L41.4805 118.619C44.3493 115.752 47.3075 112.687 50.3068 109.953C50.7863 109.516 51.458 109.31 52.0959 109.428C52.4054 109.485 52.8052 109.601 53.0132 109.858C53.4384 110.383 53.8077 112.107 53.7933 112.717C53.6574 118.466 54.5164 132.374 53.4228 137.41Z"/><path fill="#030000" d="M138.007 58.2942C138.219 59.0987 138.161 59.9735 138.161 60.8057C138.162 74.8634 138.135 88.9215 138.141 102.979C138.141 104.066 138.07 105.755 137.754 106.769C119.759 125.187 101.607 143.451 83.2999 161.559L65.7002 179.191C62.9656 181.935 58.8725 186.304 56.0655 188.696C53.1871 189.043 49.2626 188.929 46.2936 188.917L32.0484 188.878L16.6844 188.908C13.5977 188.923 8.55793 189.113 5.65158 188.563C5.32594 178.233 5.6875 167.506 5.53144 157.131C5.52974 156.362 5.59843 155.428 5.6358 154.645C6.07193 165.872 5.65132 176.727 5.88543 187.838C19.8344 187.209 33.9346 187.707 47.9028 187.586C50.6288 187.562 53.3119 187.664 56.0352 187.45C57.9089 185.991 62.4062 181.171 64.3077 179.259L80.8468 162.685C99.8729 143.895 118.713 124.917 137.365 105.755C138.099 101.836 137.852 94.9685 137.85 90.7928L137.83 66.8116C137.83 65.5563 137.73 59.1256 138.007 58.2942Z"/><path fill="#FEFEFE" d="M201.811 109.371C203.188 107.6 206.315 104.65 208.016 102.956L218.653 92.3201L235.736 75.2236C239.118 71.8414 242.529 68.3749 246.029 65.1164C246.72 64.473 247.402 63.8738 248.384 63.9342L249.779 64.4389C250.164 64.697 250.39 64.7904 250.42 65.4185C250.586 68.9102 250.536 72.7711 250.536 76.2424L250.527 100.406L250.524 141.12C250.531 147.8 250.575 154.566 250.546 161.252C250.54 162.587 250.293 163.036 249.405 164.115C247.528 166.396 245.211 168.585 243.114 170.68L232.391 181.402L215.426 198.354C212.304 201.472 209.195 204.612 206.013 207.669C205.081 208.565 204.312 209.1 202.959 208.788L202.516 208.587C201.708 207.7 201.528 206.909 201.521 205.73C201.481 198.567 201.497 191.404 201.501 184.241L201.535 141.296L201.502 120.907C201.497 118.15 201.328 111.789 201.811 109.371Z"/><path fill="#B2AEAD" d="M202.207 204.52C202.249 204.644 202.293 204.766 202.34 204.888C202.669 205.733 202.508 205.621 203.138 205.907C205.715 205.259 214.907 195.338 217.299 192.946L239.898 170.346C241.795 168.451 247.998 162.048 249.854 160.919C249.966 161.821 250.111 162.513 249.504 163.211C247.842 165.124 245.828 167.03 244.032 168.817L233.478 179.342L215.69 197.129C211.833 200.985 207.496 205.976 202.959 208.788L202.516 208.587C202.553 208.081 202.241 205.406 202.207 204.52Z"/><path fill="#3A3D3B" d="M249.779 64.4389C250.164 64.697 250.39 64.7904 250.42 65.4185C250.586 68.9102 250.536 72.7711 250.536 76.2424L250.527 100.406L250.524 141.12C250.531 147.8 250.575 154.566 250.546 161.252C250.54 162.587 250.293 163.036 249.405 164.115C247.528 166.396 245.211 168.585 243.114 170.68L232.391 181.402L215.426 198.354C212.304 201.472 209.195 204.612 206.013 207.669C205.081 208.565 204.312 209.1 202.959 208.788C207.496 205.976 211.833 200.985 215.69 197.129L233.478 179.342L244.032 168.817C245.828 167.03 247.842 165.124 249.504 163.211C250.111 162.513 249.966 161.821 249.854 160.919C250.091 154.453 249.952 147.291 249.952 140.779L249.95 105.475L249.96 79.1703C249.954 74.6789 250.11 68.7515 249.779 64.4389Z"/><path fill="#3A3D3B" d="M201.811 109.371C203.188 107.6 206.315 104.65 208.016 102.956L218.653 92.3201L235.736 75.2236C239.118 71.8414 242.529 68.3749 246.029 65.1164C246.72 64.473 247.402 63.8738 248.384 63.9342C245.8 65.285 239.091 72.5213 236.626 74.9849L218.859 92.7429L208.527 103.074C206.572 105.029 203.86 107.53 202.248 109.68L202.246 174.12L202.266 194.118C202.269 196.855 202.43 202.027 202.207 204.52C202.241 205.406 202.553 208.081 202.516 208.587C201.708 207.7 201.528 206.909 201.521 205.73C201.481 198.567 201.497 191.404 201.501 184.241L201.535 141.296L201.502 120.907C201.497 118.15 201.328 111.789 201.811 109.371Z"/><path fill="#FE0000" d="M5.34313 89.8843C6.58067 88.2201 12.1268 82.9255 13.9686 81.0908L31.8638 63.2244L67.5333 27.5509C73.6275 21.4281 79.5704 15.1448 85.7906 9.14679C86.7998 8.17361 88.7021 6.50821 90.0817 7.67121C90.9661 8.41675 90.7911 10.0827 90.7874 11.149C91.1773 16.4081 90.9309 25.6025 90.9052 31.0913C90.8652 39.6314 91.1522 49.4461 90.8219 57.8896C87.7563 62.0561 82.2517 67.1975 78.4441 70.9893L60.0798 89.3523L25.8355 123.652C20.5803 128.91 15.2776 134.193 10.0628 139.496C9.51823 140.05 8.27435 140.942 7.47985 141.061C6.86141 141.154 6.54364 141.053 6.02448 140.699C5.40294 140.274 5.35965 139.387 5.27842 138.673C5.1464 128.001 5.08752 117.329 5.10178 106.656C5.09917 102.063 4.8773 94.2055 5.34313 89.8843Z"/><path fill="#030000" d="M90.7874 11.149C91.1773 16.4081 90.9309 25.6025 90.9052 31.0913C90.8652 39.6314 91.1522 49.4461 90.8219 57.8896C87.7563 62.0561 82.2517 67.1975 78.4441 70.9893L60.0798 89.3523L25.8355 123.652C20.5803 128.91 15.2776 134.193 10.0628 139.496C9.51823 140.05 8.27435 140.942 7.47985 141.061C6.86141 141.154 6.54364 141.053 6.02448 140.699C5.40294 140.274 5.35965 139.387 5.27842 138.673C5.85645 139.913 5.83837 140.159 7.21614 140.345C8.53775 139.967 15.6715 132.31 17.2143 130.766L37.2925 110.699L70.7895 77.1719C73.1571 74.8052 90.1416 58.3257 90.2451 57.0035C91.4142 42.0651 89.8927 26.1554 90.7874 11.149Z"/></svg>